<svg class='edit-button' version="1.1" id="Layer_1" xmlns="http://www.w3.org/2000/svg" xmlns:xlink="http://www.w3.org/1999/xlink" x="0px" y="0px"
	 width="100%" viewBox="0 0 130 130" enable-background="new 0 0 130 130" xml:space="preserve">
<path fill="#FCFCFC" opacity="1.000000" stroke="none" 
	d="
M77.000000,131.000000 
	C51.333336,131.000000 26.166672,131.000000 1.000007,131.000000 
	C1.000005,87.666672 1.000005,44.333351 1.000002,1.000018 
	C44.333317,1.000012 87.666634,1.000012 130.999969,1.000006 
	C130.999969,44.333313 130.999969,87.666626 130.999985,130.999969 
	C113.166664,131.000000 95.333336,131.000000 77.000000,131.000000 
M7.680013,83.499847 
	C7.680021,94.158272 7.678780,104.816704 7.680429,115.475128 
	C7.681776,124.182877 7.683306,124.183975 16.141682,124.184166 
	C41.455379,124.184731 66.769272,124.245033 92.082703,124.162300 
	C108.049667,124.110123 106.196350,126.318504 106.265877,110.219727 
	C106.314774,98.895393 106.264511,87.570656 106.280914,76.246132 
	C106.284866,73.519455 105.799927,71.000053 102.454079,70.970268 
	C99.013359,70.939644 98.051643,73.373703 98.048485,76.376427 
	C98.047081,77.708725 98.047508,79.041031 98.047501,80.373329 
	C98.047440,92.139671 98.047462,103.906021 98.047462,115.660973 
	C70.377251,115.660973 43.177891,115.660973 16.155684,115.660973 
	C16.155684,88.239243 16.155684,61.155170 16.155684,33.798195 
	C29.216808,33.798195 42.010349,33.783772 54.803806,33.809395 
	C57.633865,33.815063 60.546421,33.526119 60.913574,30.141979 
	C61.382252,25.822056 58.073631,25.545010 54.893768,25.543249 
	C41.404236,25.535782 27.914652,25.519779 14.425179,25.548758 
	C8.271959,25.561975 7.691075,26.181208 7.685216,32.538597 
	C7.669868,49.192333 7.680017,65.846092 7.680013,83.499847 
M100.177849,50.678066 
	C107.367195,43.492493 114.481812,36.229816 121.780045,29.156590 
	C125.021675,26.014902 124.992119,23.368401 121.730194,20.344048 
	C118.434372,17.288271 115.353523,14.001532 112.154381,10.840372 
	C107.881317,6.618034 106.696701,6.633331 102.385956,10.941254 
	C86.946983,26.370148 72.012939,42.352711 55.896114,57.037331 
	C45.706074,66.321846 41.699814,78.392990 36.657207,90.201782 
	C35.127834,93.783264 38.126457,97.125420 41.534252,95.549904 
	C52.096863,90.666496 63.839035,88.214928 72.223793,78.855598 
	C80.883530,69.189339 90.487213,60.368729 100.177849,50.678066 
z"/>
<path fill="#040404" opacity="1.000000" stroke="none" 
	d="
M7.680008,82.999847 
	C7.680017,65.846092 7.669868,49.192333 7.685216,32.538597 
	C7.691075,26.181208 8.271959,25.561975 14.425179,25.548758 
	C27.914652,25.519779 41.404236,25.535782 54.893768,25.543249 
	C58.073631,25.545010 61.382252,25.822056 60.913574,30.141979 
	C60.546421,33.526119 57.633865,33.815063 54.803806,33.809395 
	C42.010349,33.783772 29.216808,33.798195 16.155684,33.798195 
	C16.155684,61.155170 16.155684,88.239243 16.155684,115.660973 
	C43.177891,115.660973 70.377251,115.660973 98.047462,115.660973 
	C98.047462,103.906021 98.047440,92.139671 98.047501,80.373329 
	C98.047508,79.041031 98.047081,77.708725 98.048485,76.376427 
	C98.051643,73.373703 99.013359,70.939644 102.454079,70.970268 
	C105.799927,71.000053 106.284866,73.519455 106.280914,76.246132 
	C106.264511,87.570656 106.314774,98.895393 106.265877,110.219727 
	C106.196350,126.318504 108.049667,124.110123 92.082703,124.162300 
	C66.769272,124.245033 41.455379,124.184731 16.141682,124.184166 
	C7.683306,124.183975 7.681776,124.182877 7.680429,115.475128 
	C7.678780,104.816704 7.680021,94.158272 7.680008,82.999847 
z"/>
<path fill="#020202" opacity="1.000000" stroke="none" 
	d="
M99.927902,50.928116 
	C90.487213,60.368729 80.883530,69.189339 72.223793,78.855598 
	C63.839035,88.214928 52.096863,90.666496 41.534252,95.549904 
	C38.126457,97.125420 35.127834,93.783264 36.657207,90.201782 
	C41.699814,78.392990 45.706074,66.321846 55.896114,57.037331 
	C72.012939,42.352711 86.946983,26.370148 102.385956,10.941254 
	C106.696701,6.633331 107.881317,6.618034 112.154381,10.840372 
	C115.353523,14.001532 118.434372,17.288271 121.730194,20.344048 
	C124.992119,23.368401 125.021675,26.014902 121.780045,29.156590 
	C114.481812,36.229816 107.367195,43.492493 99.927902,50.928116 
M102.625717,35.739613 
	C100.481514,33.474888 98.337311,31.210159 96.593704,29.368542 
	C82.580376,43.311367 68.970757,56.852520 55.846764,69.910492 
	C57.956863,72.033890 60.235443,74.326828 62.305840,76.410271 
	C75.633873,63.241592 89.209465,49.828320 102.625717,35.739613 
M110.941887,28.405611 
	C112.069077,27.222546 113.196259,26.039480 113.631271,25.582907 
	C111.362930,22.815340 109.310692,20.311432 107.457573,18.050455 
	C104.910736,20.625856 102.600983,22.961514 100.592453,24.992573 
	C102.747726,27.145138 105.041664,29.436201 107.856689,32.247692 
	C108.613945,31.271141 109.527412,30.093147 110.941887,28.405611 
M50.844761,82.993362 
	C52.862911,82.075951 54.881058,81.158531 56.609303,80.372894 
	C55.084229,78.439362 53.790943,76.799698 51.960209,74.478630 
	C50.650021,77.705574 49.622795,80.235588 48.595566,82.765610 
	C49.122192,82.903625 49.648819,83.041641 50.844761,82.993362 
z"/>
<path fill="#F4F4F4" opacity="1.000000" stroke="none" 
	d="
M102.705383,36.077332 
	C89.209465,49.828320 75.633873,63.241592 62.305840,76.410271 
	C60.235443,74.326828 57.956863,72.033890 55.846764,69.910492 
	C68.970757,56.852520 82.580376,43.311367 96.593704,29.368542 
	C98.337311,31.210159 100.481514,33.474888 102.705383,36.077332 
z"/>
<path fill="#F3F3F3" opacity="1.000000" stroke="none" 
	d="
M110.691376,28.660381 
	C109.527412,30.093147 108.613945,31.271141 107.856689,32.247692 
	C105.041664,29.436201 102.747726,27.145138 100.592453,24.992573 
	C102.600983,22.961514 104.910736,20.625856 107.457573,18.050455 
	C109.310692,20.311432 111.362930,22.815340 113.631271,25.582907 
	C113.196259,26.039480 112.069077,27.222546 110.691376,28.660381 
z"/>
<path fill="#DBDBDB" opacity="1.000000" stroke="none" 
	d="
M50.510105,83.086510 
	C49.648819,83.041641 49.122192,82.903625 48.595566,82.765610 
	C49.622795,80.235588 50.650021,77.705574 51.960209,74.478630 
	C53.790943,76.799698 55.084229,78.439362 56.609303,80.372894 
	C54.881058,81.158531 52.862911,82.075951 50.510105,83.086510 
z"/>
</svg>